<?xml version="1.0" encoding="UTF-8"?>
<svg id="Layer_2" data-name="Layer 2" xmlns="http://www.w3.org/2000/svg" viewBox="0 0 51.22 121.65">
  <defs>
    <style>
      .cls-1 {
        font-family: GothamBold, GothamBold;
        font-size: 25px;
      }

      .cls-2 {
        font-family: GothamBook, GothamBook;
        font-size: 16px;
      }
    </style>
  </defs>
  <g id="Layer_1-2" data-name="Layer 1">
    <g>
      <g>
        <path d="m46.85,22.05c-.21.38-.35.86-.66,1.12-.34.29-.83.52-1.27.54-1.36.07-2.72.04-4.08.02-1.1-.02-1.93-.89-1.93-1.96,0-1.07.84-1.94,1.93-1.96,1.31-.02,2.63-.02,3.94,0,1.03,0,1.7.53,1.99,1.53.02.06.05.1.08.16,0,.19,0,.37,0,.56Z"/>
        <path d="m24.77,43.58c-.11-.04-.22-.09-.33-.13-.8-.28-1.34-.96-1.35-1.81-.02-1.36-.02-2.72,0-4.08.02-1.09.89-1.94,1.96-1.93,1.07,0,1.94.84,1.96,1.94.02,1.31.02,2.63,0,3.94,0,1.03-.53,1.7-1.53,1.99-.06.02-.1.06-.16.08h-.56Z"/>
        <path d="m25.3,31.67c-5.33.11-10-3.99-10.13-9.67-.13-5.46,4.11-9.91,9.59-10.12,5.41-.21,9.97,4.09,10.19,9.62.22,5.38-4.1,9.94-9.65,10.17Zm-.23-3.96c3.26,0,5.91-2.67,5.92-5.94,0-3.26-2.67-5.94-5.93-5.93-3.28,0-5.94,2.66-5.94,5.92,0,3.3,2.66,5.95,5.95,5.95Z"/>
        <path d="m9.08,8.02c.06-1.03.42-1.65,1.15-1.99.73-.35,1.49-.3,2.08.25,1.06.99,2.09,2.01,3.07,3.08.68.74.58,1.89-.12,2.61-.72.73-1.88.84-2.64.14-1.07-.98-2.08-2.02-3.07-3.08-.28-.3-.37-.78-.47-1Z"/>
        <path d="m38.79,5.81c1.01.05,1.64.4,1.99,1.13.35.73.31,1.49-.24,2.08-1,1.07-2.03,2.12-3.11,3.11-.74.68-1.9.56-2.6-.16-.71-.72-.82-1.86-.13-2.6.99-1.08,2.04-2.11,3.11-3.1.29-.27.76-.36.98-.45Z"/>
        <path d="m41.02,35.52c-.04,1.06-.41,1.68-1.14,2.03-.73.35-1.49.3-2.08-.25-1.05-.98-2.07-1.99-3.05-3.05-.7-.75-.6-1.93.12-2.65.72-.72,1.9-.81,2.65-.11,1.04.97,2.04,1.98,3.01,3.02.29.32.4.8.5,1.01Z"/>
        <path d="m11.3,37.76c-1.04-.03-1.66-.39-2.01-1.12-.35-.73-.31-1.48.24-2.08.99-1.06,2.01-2.1,3.08-3.08.73-.68,1.91-.58,2.61.12.71.7.83,1.88.16,2.61-.99,1.08-2.04,2.11-3.12,3.11-.29.27-.76.36-.96.44Z"/>
        <path d="m23.08,3.96c0-.66-.01-1.33,0-1.99C23.11.84,23.98-.01,25.06,0c1.07.01,1.93.85,1.95,1.95.02,1.34.02,2.69,0,4.03-.02,1.1-.89,1.94-1.96,1.94-1.07,0-1.94-.84-1.97-1.93-.02-.68,0-1.36,0-2.04Z"/>
        <path d="m7.23,23.75c-.65,0-1.3.01-1.95,0-1.16-.02-2.02-.88-2.01-1.98,0-1.09.86-1.94,1.99-1.95,1.31-.02,2.63-.02,3.94,0,1.13.01,1.98.87,1.99,1.95,0,1.1-.85,1.96-2.02,1.98-.65.01-1.3,0-1.95,0Z"/>
      </g>
      <text class="cls-1" transform="translate(0 93.74)"><tspan x="0" y="0">450</tspan></text>
      <text class="cls-2" transform="translate(11.37 119.01)"><tspan x="0" y="0">nits</tspan></text>
    </g>
  </g>
</svg>