<?xml version="1.0" encoding="utf-8"?>
<!-- Generator: Adobe Illustrator 27.7.0, SVG Export Plug-In . SVG Version: 6.00 Build 0)  -->
<svg version="1.1" id="Layer_2_00000061434376657794043310000001303103408268911011_"
	 xmlns="http://www.w3.org/2000/svg" xmlns:xlink="http://www.w3.org/1999/xlink" x="0px" y="0px" viewBox="0 0 175.2 170.9"
	 style="enable-background:new 0 0 175.2 170.9;" xml:space="preserve">
<style type="text/css">
	.st0{fill:#E6D2DB;}
	.st1{fill:#8790D6;}
	.st2{fill:#FFFFFF;}
	.st3{enable-background:new    ;}
</style>
<g id="Layer_1-2">
	<g>
		<g>
			<g>
				<g>
					<path class="st0" d="M53.9,2h68c3.5,0,6.3,2.8,6.3,6.3v68c0,3.5-2.8,6.3-6.3,6.3h-68c-3.5,0-6.3-2.8-6.3-6.3v-68
						C47.6,4.9,50.5,2,53.9,2z"/>
					<path class="st1" d="M115.4,84.7H60.5c-8.2,0-14.9-6.7-14.9-14.9V14.9C45.6,6.7,52.3,0,60.5,0h54.9c8.2,0,14.9,6.7,14.9,14.9
						v54.9C130.3,78,123.6,84.7,115.4,84.7z M60.5,4.1c-6,0-10.8,4.9-10.8,10.8v54.9c0,6,4.8,10.8,10.8,10.8h54.9
						c6,0,10.8-4.8,10.8-10.8V14.9c0-6-4.8-10.8-10.8-10.8H60.5z"/>
				</g>
				<g>
					<circle class="st2" cx="87.9" cy="42.3" r="22.9"/>
					<path class="st1" d="M87.9,67.3c-13.8,0-25-11.2-25-25s11.2-25,25-25s25,11.2,25,25S101.7,67.3,87.9,67.3z M87.9,21.5
						c-11.5,0-20.9,9.4-20.9,20.9s9.4,20.9,20.9,20.9s20.9-9.4,20.9-20.9S99.4,21.5,87.9,21.5z"/>
				</g>
				<path d="M96.3,42.3c0,4.6-3.8,8.4-8.4,8.4s-8.4-3.8-8.4-8.4s3.8-8.4,8.4-8.4v8.4H96.3z"/>
			</g>
			<g>
				<path d="M51.9,120.5h11.6v3.6h-8.1l-0.2,3.3c0.4-0.1,0.8-0.2,1.1-0.2c0.4-0.1,0.8-0.1,1.3-0.1c0.9,0,1.8,0.1,2.6,0.3
					c0.8,0.2,1.5,0.6,2.1,1.1s1.1,1.1,1.4,1.9c0.3,0.8,0.5,1.7,0.5,2.8c0,1-0.2,1.9-0.5,2.7c-0.3,0.8-0.8,1.5-1.5,2.1
					c-0.6,0.6-1.4,1-2.3,1.3s-1.9,0.5-3,0.5c-1.5,0-2.9-0.2-4-0.8s-2.2-1.2-3.1-2.1l2.5-3c0.7,0.6,1.4,1.1,2.2,1.5s1.5,0.5,2.3,0.5
					c1,0,1.7-0.2,2.3-0.7s0.8-1.1,0.8-2s-0.3-1.5-0.9-1.9s-1.4-0.7-2.4-0.7c-0.6,0-1.2,0.1-1.7,0.2s-1,0.3-1.5,0.5l-2.4-1.6
					L51.9,120.5L51.9,120.5z"/>
				<path d="M84.1,129.9c0,1.4-0.2,2.7-0.6,3.9c-0.4,1.2-1,2.2-1.7,3.1s-1.6,1.6-2.7,2.1c-1,0.5-2.2,0.8-3.4,0.8s-2.4-0.2-3.4-0.7
					c-1-0.5-1.9-1.2-2.6-2.1c-0.7-0.9-1.3-1.9-1.7-3.1s-0.6-2.5-0.6-3.8s0.2-2.7,0.6-3.8s1-2.2,1.7-3.1s1.6-1.6,2.7-2.1
					c1-0.5,2.2-0.8,3.4-0.8s2.4,0.2,3.4,0.7c1,0.5,1.9,1.2,2.6,2.1s1.3,1.9,1.7,3.1C83.9,127.2,84.1,128.5,84.1,129.9L84.1,129.9z
					 M79.8,129.9c0-0.9-0.1-1.7-0.3-2.4c-0.2-0.7-0.5-1.4-0.8-1.9c-0.4-0.5-0.8-1-1.3-1.3c-0.5-0.3-1.1-0.5-1.7-0.5
					s-1.2,0.2-1.7,0.4c-0.5,0.3-0.9,0.7-1.3,1.2s-0.6,1.2-0.8,1.9s-0.3,1.5-0.3,2.4s0.1,1.7,0.3,2.4c0.2,0.7,0.5,1.4,0.8,1.9
					s0.8,1,1.3,1.3s1.1,0.5,1.7,0.5s1.2-0.1,1.7-0.4s0.9-0.7,1.3-1.2s0.6-1.2,0.8-1.9S79.8,130.8,79.8,129.9L79.8,129.9z"/>
				<path d="M102.6,139.3V127l-5.3,8.1h-0.1l-5.2-8v12.2h-4.1v-18.9h4.5l4.9,8l4.9-8h4.5v18.9H102.6L102.6,139.3z"/>
				<path d="M125.6,129.9c-0.4,0.8-0.9,1.5-1.6,2.1c-0.7,0.6-1.5,1-2.4,1.2s-1.9,0.4-3,0.4h-3.2v5.7h-4.2v-18.9h7.7
					c1.1,0,2.1,0.2,3,0.5s1.6,0.8,2.3,1.3s1.1,1.3,1.4,2.1s0.5,1.7,0.5,2.7v0.1C126.2,128.1,126,129.1,125.6,129.9L125.6,129.9z
					 M122,127.1c0-0.9-0.3-1.6-0.9-2.1s-1.4-0.7-2.5-0.7h-3.2v5.8h3.3c1,0,1.8-0.3,2.4-0.8S122,127.9,122,127.1
					C122,127.1,122,127.1,122,127.1z"/>
			</g>
		</g>
		<g class="st3">
			<path d="M2.4,160.4h0.7v8.5H2.1v-7.5l-1.6,0.5l-0.2-0.8L2.4,160.4z"/>
			<path d="M5.2,168.9v-1.3h1.1v1.3H5.2z"/>
			<path d="M8.7,162.6L8,162.1c0.8-1.1,1.5-1.8,3-1.8c1.5,0,2.6,1,2.6,2.4c0,1.2-0.6,2-2.1,3.3l-2.2,2h4.4v0.9H7.8v-0.7l3-2.7
				c1.3-1.2,1.8-1.8,1.8-2.6c0-1-0.8-1.6-1.7-1.6C10,161.2,9.3,161.7,8.7,162.6z"/>
			<path d="M18.2,169c-1.8,0-3.2-1-3.2-2.4c0-1,0.7-1.7,1.7-2.1c-0.8-0.4-1.4-1-1.4-1.9c0-1.3,1.3-2.2,2.9-2.2s2.9,0.9,2.9,2.2
				c0,1-0.7,1.6-1.4,1.9c1,0.4,1.7,1.1,1.7,2.1C21.4,168,20,169,18.2,169z M18.2,165c-1.2,0-2.2,0.7-2.2,1.6c0,0.9,0.8,1.6,2.2,1.6
				s2.2-0.7,2.2-1.6C20.4,165.6,19.4,165,18.2,165z M18.2,161.2c-1.1,0-1.9,0.6-1.9,1.5c0,0.9,0.9,1.5,1.9,1.5s1.9-0.6,1.9-1.5
				C20.1,161.8,19.3,161.2,18.2,161.2z"/>
			<path d="M27.4,162.7h0.9v6.2h-0.9v-1.1c-0.4,0.7-1.1,1.2-2.1,1.2c-1.5,0-2.4-1-2.4-2.5v-3.8h0.9v3.6c0,1.2,0.6,1.9,1.7,1.9
				c1.1,0,1.9-0.8,1.9-1.9V162.7z"/>
			<path d="M37.5,162.5c1.4,0,2.3,1,2.3,2.5v3.8h-0.9v-3.6c0-1.2-0.6-1.9-1.6-1.9c-0.9,0-1.7,0.7-1.7,1.9v3.6h-0.9v-3.6
				c0-1.2-0.6-1.8-1.6-1.8s-1.7,0.8-1.7,2v3.5h-0.9v-6.2h0.9v1c0.4-0.6,1-1.2,2-1.2c1,0,1.7,0.5,2,1.2
				C35.8,163.1,36.4,162.5,37.5,162.5z"/>
			<path d="M42.1,168.9h-0.4v-1.3h1.1v1.1c0,1-0.4,1.4-1.3,1.6l-0.1-0.4C41.9,169.7,42.2,169.4,42.1,168.9z"/>
		</g>
		<g class="st3">
			<path d="M51.6,162.7v0.8h-2v5.4h-0.9v-5.4h-0.9v-0.8h0.9v-0.5c0-1.4,0.7-2.1,1.9-2.1c0.4,0,0.7,0,1,0.2v0.8
				c-0.3-0.1-0.6-0.2-0.9-0.2c-0.7,0-1.1,0.4-1.1,1.3v0.5H51.6z"/>
		</g>
		<g class="st3">
			<path d="M57.4,159.3l-5.6,11.1h-0.9l5.6-11.1H57.4z"/>
		</g>
		<g class="st3">
			<path d="M59.8,160.4h0.7v8.5h-0.9v-7.5l-1.6,0.5l-0.2-0.8L59.8,160.4z"/>
			<path d="M62.6,168.9v-1.3h1.1v1.3H62.6z"/>
			<path d="M68.4,169c-1.8,0-3.2-1-3.2-2.4c0-1,0.7-1.7,1.7-2.1c-0.8-0.4-1.4-1-1.4-1.9c0-1.3,1.3-2.2,2.9-2.2s2.9,0.9,2.9,2.2
				c0,1-0.7,1.6-1.4,1.9c1,0.4,1.7,1.1,1.7,2.1C71.6,168,70.2,169,68.4,169z M68.4,165c-1.2,0-2.2,0.7-2.2,1.6
				c0,0.9,0.8,1.6,2.2,1.6c1.4,0,2.2-0.7,2.2-1.6C70.6,165.6,69.6,165,68.4,165z M68.4,161.2c-1.1,0-1.9,0.6-1.9,1.5
				c0,0.9,0.9,1.5,1.9,1.5s1.9-0.6,1.9-1.5C70.3,161.8,69.5,161.2,68.4,161.2z"/>
			<path d="M80,165.9h-2v3H77v-8.4h3.1c1.9,0,3.1,1,3.1,2.7C83.3,165,81.8,165.9,80,165.9z M80.1,161.4h-2.1v3.7H80
				c1.4,0,2.3-0.7,2.3-1.9C82.3,162,81.4,161.4,80.1,161.4z"/>
			<path d="M85.8,168.9h-0.9v-6.2h0.9v1.6c0.5-1,1.4-1.8,2.5-1.7v1h-0.1c-1.4,0-2.5,1-2.5,2.8V168.9z"/>
			<path d="M89.7,161.3v-1h1.1v1H89.7z M89.8,168.9v-6.2h0.9v6.2H89.8z"/>
			<path d="M100,162.5c1.4,0,2.3,1,2.3,2.5v3.8h-0.9v-3.6c0-1.2-0.6-1.9-1.6-1.9c-0.9,0-1.7,0.7-1.7,1.9v3.6h-0.9v-3.6
				c0-1.2-0.6-1.8-1.6-1.8s-1.7,0.8-1.7,2v3.5h-0.9v-6.2h0.9v1c0.4-0.6,1-1.2,2-1.2c1,0,1.7,0.5,2,1.2
				C98.2,163.1,98.9,162.5,100,162.5z"/>
			<path d="M104.6,163.9l-0.3-0.8c0.7-0.3,1.4-0.5,2.3-0.5c1.7,0,2.6,0.9,2.6,2.5v3.8h-0.9v-0.9c-0.4,0.6-1.2,1.1-2.2,1.1
				c-1.2,0-2.3-0.6-2.3-1.9c0-1.3,1.1-2,2.7-2c0.8,0,1.4,0.1,1.9,0.3v-0.2c0-1.1-0.7-1.7-1.8-1.7
				C105.8,163.4,105.2,163.6,104.6,163.9z M104.7,167c0,0.8,0.7,1.2,1.6,1.2c1.1,0,2.1-0.7,2.1-1.7V166c-0.5-0.1-1.1-0.3-1.8-0.3
				C105.4,165.7,104.7,166.2,104.7,167z"/>
			<path d="M112.2,168.9h-0.9v-6.2h0.9v1.6c0.5-1,1.4-1.8,2.5-1.7v1h-0.1c-1.4,0-2.5,1-2.5,2.8V168.9z"/>
			<path d="M119.1,169.1c-0.5,1.3-1.1,1.8-2.1,1.8c-0.5,0-0.9-0.1-1.3-0.3l0.3-0.7c0.3,0.2,0.6,0.2,1,0.2c0.6,0,0.9-0.3,1.3-1.2
				l-2.8-6.2h1l2.3,5.2l2-5.2h1L119.1,169.1z"/>
			<path d="M130.8,169c-2.4,0-4.2-1.9-4.2-4.3c0-2.4,1.8-4.4,4.2-4.4c1.5,0,2.4,0.5,3.3,1.3l-0.6,0.7c-0.7-0.7-1.5-1.2-2.6-1.2
				c-1.9,0-3.2,1.5-3.2,3.5s1.4,3.5,3.2,3.5c1.2,0,1.9-0.4,2.7-1.2l0.6,0.6C133.3,168.4,132.3,169,130.8,169z"/>
			<path d="M136,163.9l-0.3-0.8c0.7-0.3,1.4-0.5,2.3-0.5c1.7,0,2.6,0.9,2.6,2.5v3.8h-0.9v-0.9c-0.4,0.6-1.2,1.1-2.2,1.1
				c-1.2,0-2.3-0.6-2.3-1.9c0-1.3,1.1-2,2.7-2c0.8,0,1.4,0.1,1.9,0.3v-0.2c0-1.1-0.7-1.7-1.8-1.7C137.1,163.4,136.6,163.6,136,163.9
				z M136.1,167c0,0.8,0.7,1.2,1.6,1.2c1.1,0,2.1-0.7,2.1-1.7V166c-0.5-0.1-1.1-0.3-1.8-0.3C136.8,165.7,136.1,166.2,136.1,167z"/>
			<path d="M149.7,162.5c1.4,0,2.3,1,2.3,2.5v3.8h-0.9v-3.6c0-1.2-0.6-1.9-1.6-1.9c-0.9,0-1.7,0.7-1.7,1.9v3.6h-0.9v-3.6
				c0-1.2-0.6-1.8-1.6-1.8s-1.7,0.8-1.7,2v3.5h-0.9v-6.2h0.9v1c0.4-0.6,1-1.2,2-1.2c1,0,1.7,0.5,2,1.2
				C147.9,163.1,148.6,162.5,149.7,162.5z"/>
			<path d="M156.7,168.2c0.9,0,1.5-0.3,2-0.9l0.6,0.5c-0.6,0.7-1.4,1.2-2.6,1.2c-1.7,0-3.1-1.3-3.1-3.2c0-1.8,1.3-3.2,3-3.2
				c1.8,0,2.9,1.5,2.9,3.3c0,0.1,0,0.2,0,0.3h-4.9C154.7,167.5,155.6,168.2,156.7,168.2z M158.5,165.4c-0.1-1.1-0.7-2.1-2-2.1
				c-1.1,0-1.9,0.9-2,2.1H158.5z"/>
		</g>
		<g class="st3">
			<path d="M162,168.9h-0.9v-6.2h0.9v1.6c0.5-1,1.4-1.8,2.5-1.7v1h-0.1c-1.4,0-2.5,1-2.5,2.8V168.9z"/>
		</g>
		<g class="st3">
			<path d="M166,163.9l-0.3-0.8c0.7-0.3,1.4-0.5,2.3-0.5c1.7,0,2.6,0.9,2.6,2.5v3.8h-0.9v-0.9c-0.4,0.6-1.2,1.1-2.2,1.1
				c-1.2,0-2.3-0.6-2.3-1.9c0-1.3,1.1-2,2.7-2c0.8,0,1.4,0.1,1.9,0.3v-0.2c0-1.1-0.7-1.7-1.8-1.7C167.2,163.4,166.6,163.6,166,163.9
				z M166.1,167c0,0.8,0.7,1.2,1.6,1.2c1.1,0,2.1-0.7,2.1-1.7V166c-0.5-0.1-1.1-0.3-1.8-0.3C166.8,165.7,166.1,166.2,166.1,167z"/>
		</g>
	</g>
</g>
</svg>
