<?xml version="1.0" encoding="utf-8"?>
<!-- Generator: Adobe Illustrator 27.7.0, SVG Export Plug-In . SVG Version: 6.00 Build 0)  -->
<svg version="1.1" id="Layer_2_00000127024148381255509380000007451013849940859059_"
	 xmlns="http://www.w3.org/2000/svg" xmlns:xlink="http://www.w3.org/1999/xlink" x="0px" y="0px" viewBox="0 0 92.2 170.9"
	 style="enable-background:new 0 0 92.2 170.9;" xml:space="preserve">
<style type="text/css">
	.st0{fill:#E6D2DB;}
	.st1{fill:#8790D6;}
	.st2{fill:#FFFFFF;}
	.st3{enable-background:new    ;}
	.st4{font-family:'GothamBook';}
	.st5{font-size:12px;}
</style>
<g id="Layer_1-2">
	<g>
		<g>
			<g>
				<path class="st0" d="M32.7,40.9L42.8,3c0.4-1.5,2.5-1.5,2.9,0l10,37.9c0.2,0.9-0.5,1.9-1.4,1.9H34.2
					C33.2,42.8,32.5,41.9,32.7,40.9z"/>
				<path class="st1" d="M54.2,44.7H34.2c-1.1,0-2-0.5-2.7-1.3s-0.9-1.9-0.6-2.9l10-37.9C41.3,1,42.6,0,44.2,0s2.9,1,3.3,2.5
					l10,37.9c0.3,1,0.1,2.1-0.6,2.9S55.3,44.7,54.2,44.7z M34.7,40.9h18.9L44.2,5.1L34.7,40.9L34.7,40.9z"/>
			</g>
			<rect x="42.3" y="42.8" class="st1" width="3.8" height="8.5"/>
			<g>
				<path class="st0" d="M67.3,41.3l10-37.9c0.4-1.5,2.5-1.5,2.9,0l10,37.9c0.2,0.9-0.5,1.9-1.4,1.9H68.8
					C67.8,43.1,67.1,42.2,67.3,41.3L67.3,41.3z"/>
				<path class="st1" d="M88.8,45.1H68.8c-1.1,0-2-0.5-2.7-1.3s-0.9-1.9-0.6-2.9l10-37.9c0.4-1.5,1.7-2.5,3.3-2.5s2.9,1,3.3,2.5
					l10,37.9c0.3,1,0.1,2.1-0.6,2.9C90.9,44.6,89.9,45.1,88.8,45.1L88.8,45.1z M69.2,41.8L69.2,41.8L69.2,41.8z M69.3,41.2h18.9
					L78.8,5.5L69.3,41.2z"/>
			</g>
			<rect x="76.9" y="43.2" class="st1" width="3.8" height="8.5"/>
			<g>
				<path class="st0" d="M2,41.3L12,3.4c0.4-1.5,2.5-1.5,2.9,0l10,37.9c0.2,0.9-0.5,1.9-1.4,1.9H3.4C2.4,43.1,1.7,42.2,2,41.3z"/>
				<path class="st1" d="M23.5,45.1H3.4c-1.1,0-2-0.5-2.7-1.3s-0.9-1.9-0.6-2.9l10-37.9c0.4-1.5,1.7-2.5,3.3-2.5s2.9,1,3.3,2.5
					l10,37.9c0.3,1,0.1,2.1-0.6,2.9S24.5,45.1,23.5,45.1L23.5,45.1z M4,41.2h18.9L13.4,5.5C13.4,5.5,4,41.2,4,41.2z"/>
			</g>
			<rect x="11.5" y="43.2" class="st1" width="3.8" height="8.5"/>
			<g>
				<path class="st2" d="M43,85.6l18-68.2c0.3-1.2,2.1-1.2,2.4,0l18.1,68.2c0.2,0.8-0.4,1.6-1.2,1.6H44.2
					C43.4,87.1,42.8,86.3,43,85.6L43,85.6z"/>
				<path d="M80.3,89H44.2c-1,0-1.9-0.4-2.5-1.2c-0.6-0.8-0.8-1.8-0.5-2.7l18.1-68.2c0.4-1.4,1.6-2.4,3-2.4l0,0c1.5,0,2.7,0.9,3,2.4
					l18.1,68.2c0.2,0.9,0.1,1.9-0.6,2.7C82.2,88.6,81.3,89,80.3,89L80.3,89z M44.8,86L44.8,86L44.8,86L44.8,86z M45,85.2h34.3
					L62.2,20.3L45,85.2L45,85.2z"/>
			</g>
			<rect x="60.3" y="87.1" width="3.8" height="13.9"/>
		</g>
		<g class="st3">
			<path d="M8,166.6L8,166.6l-3.1-4.5v6.8H4v-8.4h1l3.1,4.6l3.1-4.6h1v8.4h-0.9v-6.8L8,166.6z"/>
			<path d="M14.6,163.9l-0.3-0.8c0.7-0.3,1.4-0.5,2.3-0.5c1.7,0,2.6,0.9,2.6,2.5v3.8h-0.9v-0.9c-0.4,0.6-1.2,1.1-2.2,1.1
				c-1.2,0-2.3-0.6-2.3-1.9c0-1.3,1.1-2,2.7-2c0.8,0,1.4,0.1,1.9,0.3v-0.2c0-1.1-0.7-1.7-1.8-1.7C15.7,163.4,15.2,163.6,14.6,163.9z
				 M14.7,167c0,0.8,0.7,1.2,1.6,1.2c1.1,0,2.1-0.7,2.1-1.7V166c-0.5-0.1-1.1-0.3-1.8-0.3C15.3,165.7,14.7,166.2,14.7,167z"/>
			<path d="M24,169c-1.8,0-3.2-1.5-3.2-3.2c0-1.8,1.4-3.2,3.2-3.2c1.2,0,1.9,0.5,2.5,1.1l-0.6,0.6c-0.5-0.5-1-0.9-1.9-0.9
				c-1.3,0-2.2,1.1-2.2,2.4c0,1.4,1,2.4,2.3,2.4c0.8,0,1.4-0.4,1.9-0.9l0.6,0.6C25.9,168.5,25.1,169,24,169z"/>
		</g>
		<text transform="matrix(1 0 0 1 27 168.87)" class="st4 st5">r</text>
		<g class="st3">
			<path d="M35.5,169c-1.9,0-3.2-1.5-3.2-3.2c0-1.8,1.4-3.2,3.2-3.2c1.9,0,3.2,1.5,3.2,3.2S37.3,169,35.5,169z M35.5,163.4
				c-1.3,0-2.3,1.1-2.3,2.4c0,1.3,1,2.4,2.3,2.4c1.3,0,2.3-1.1,2.3-2.4C37.8,164.4,36.8,163.4,35.5,163.4z"/>
			<path d="M48,169c-2.4,0-4.2-1.9-4.2-4.3c0-2.4,1.8-4.4,4.2-4.4c1.5,0,2.4,0.5,3.3,1.3l-0.6,0.7c-0.7-0.7-1.5-1.2-2.6-1.2
				c-1.9,0-3.3,1.5-3.3,3.5s1.4,3.5,3.3,3.5c1.2,0,1.9-0.4,2.7-1.2l0.6,0.6C50.4,168.4,49.5,169,48,169z"/>
			<path d="M53.2,163.9l-0.3-0.8c0.7-0.3,1.4-0.5,2.3-0.5c1.7,0,2.6,0.9,2.6,2.5v3.8h-0.9v-0.9c-0.4,0.6-1.2,1.1-2.2,1.1
				c-1.2,0-2.3-0.6-2.3-1.9c0-1.3,1.1-2,2.7-2c0.8,0,1.4,0.1,1.9,0.3v-0.2c0-1.1-0.7-1.7-1.8-1.7C54.3,163.4,53.8,163.6,53.2,163.9z
				 M53.3,167c0,0.8,0.7,1.2,1.6,1.2c1.1,0,2.1-0.7,2.1-1.7V166c-0.5-0.1-1.1-0.3-1.8-0.3C53.9,165.7,53.3,166.2,53.3,167z"/>
			<path d="M66.9,162.5c1.4,0,2.3,1,2.3,2.5v3.8h-0.9v-3.6c0-1.2-0.6-1.9-1.6-1.9c-0.9,0-1.7,0.7-1.7,1.9v3.6H64v-3.6
				c0-1.2-0.6-1.8-1.6-1.8s-1.7,0.8-1.7,2v3.5h-0.9v-6.2h0.9v1c0.4-0.6,1-1.2,2-1.2c1,0,1.7,0.5,2,1.2
				C65.1,163.1,65.8,162.5,66.9,162.5z"/>
			<path d="M73.9,168.2c0.9,0,1.5-0.3,2-0.9l0.6,0.5c-0.6,0.7-1.4,1.2-2.6,1.2c-1.7,0-3.1-1.3-3.1-3.2c0-1.8,1.3-3.2,3-3.2
				c1.8,0,2.9,1.5,2.9,3.3c0,0.1,0,0.2,0,0.3h-4.9C71.9,167.5,72.8,168.2,73.9,168.2z M75.7,165.4c-0.1-1.1-0.7-2.1-2-2.1
				c-1.1,0-1.9,0.9-2,2.1H75.7z"/>
		</g>
		<text transform="matrix(1 0 0 1 77.26 168.87)" class="st4 st5">r</text>
		<text transform="matrix(1 0 0 1 81.82 168.87)" class="st4 st5">a</text>
		<g class="st3">
			<path d="M20.1,126.6l-3.1-2.5c2-2.7,3.9-4.1,7.4-4.1c4.2,0,6.9,2.5,6.9,6.2c0,3.3-1.7,5-5.2,7.8l-3.2,2.5h8.7v3.8H16.8v-3.5
				l6.6-5.4c2.5-2.1,3.4-3.1,3.4-4.8c0-1.7-1.1-2.6-2.7-2.6C22.6,124,21.6,124.8,20.1,126.6z"/>
			<path d="M51.1,140.3v-13l-5.6,8.5h-0.1l-5.6-8.4v12.9h-4.3v-20h4.7l5.2,8.4l5.2-8.4h4.7v20H51.1z"/>
			<path d="M68,134.3h-3.3v6h-4.4v-20h8.2c4.8,0,7.6,2.8,7.6,6.9v0.1C76,131.9,72.4,134.3,68,134.3z M71.6,127.3c0-2-1.4-3-3.6-3
				h-3.4v6.1h3.5C70.3,130.4,71.6,129.1,71.6,127.3L71.6,127.3z"/>
		</g>
	</g>
</g>
</svg>
